HIERARCHY
ROOT Hips
{
	OFFSET	0.00	0.00	0.00
	CHANNELS 6 Xposition Yposition Zposition Zrotation Xrotation Yrotation
	JOINT LeftUpLeg
	{
		OFFSET	 0.126116	-0.014019	-0.065224
		CHANNELS 3 Zrotation Xrotation Yrotation
		JOINT LeftLeg
		{
			OFFSET	 0.000000	 0.000000	 0.569914
			CHANNELS 3 Zrotation Xrotation Yrotation
			JOINT LeftFoot
			{
				OFFSET	 0.000000	 0.000000	 0.544423
				CHANNELS 3 Zrotation Xrotation Yrotation
				JOINT LeftToeBase
				{
					OFFSET	 0.000000	 0.000000	 0.207117
					CHANNELS 3 Zrotation Xrotation Yrotation
					End Site
					{
						OFFSET	 0.000000	 0.000000	 0.207117
					}
				}
			}
		}
	}
	JOINT RightUpLeg
	{
		OFFSET	-0.124023	-0.008373	-0.065224
		CHANNELS 3 Zrotation Xrotation Yrotation
		JOINT RightLeg
		{
			OFFSET	 0.000000	 0.000000	 0.570047
			CHANNELS 3 Zrotation Xrotation Yrotation
			JOINT RightFoot
			{
				OFFSET	 0.000000	 0.000000	 0.544354
				CHANNELS 3 Zrotation Xrotation Yrotation
				JOINT RightToeBase
				{
					OFFSET	 0.000000	 0.000000	 0.207540
					CHANNELS 3 Zrotation Xrotation Yrotation
					End Site
					{
						OFFSET	 0.000000	 0.000000	 0.207540
					}
				}
			}
		}
	}
	JOINT Spine
	{
		OFFSET	 0.000184	-0.007763	 0.117403
		CHANNELS 3 Zrotation Xrotation Yrotation
		JOINT Spine1
		{
			OFFSET	 0.000000	 0.000000	 0.137269
			CHANNELS 3 Zrotation Xrotation Yrotation
			JOINT Spine2
			{
				OFFSET	 0.000000	 0.000000	 0.156879
				CHANNELS 3 Zrotation Xrotation Yrotation
				JOINT LeftShoulder
				{
					OFFSET	 0.080501	-0.002496	 0.160144
					CHANNELS 3 Zrotation Xrotation Yrotation
					JOINT LeftArm
					{
						OFFSET	 0.000000	 0.000000	 0.164363
						CHANNELS 3 Zrotation Xrotation Yrotation
						JOINT LeftForeArm
						{
							OFFSET	 0.000000	 0.000000	 0.364576
							CHANNELS 3 Zrotation Xrotation Yrotation
							JOINT LeftHand
							{
								OFFSET	 0.000000	 0.000000	 0.360812
								CHANNELS 3 Zrotation Xrotation Yrotation
								JOINT LeftHandIndex1
								{
									OFFSET	 0.000000	 0.000000	 0.086006
									CHANNELS 3 Zrotation Xrotation Yrotation
									JOINT LeftHandIndex2
									{
										OFFSET	 0.000000	 0.000000	 0.047236
										CHANNELS 3 Zrotation Xrotation Yrotation
										JOINT LeftHandIndex3
										{
											OFFSET	-0.004284	-0.000551	 0.038166
											CHANNELS 3 Zrotation Xrotation Yrotation
											End Site
											{
												OFFSET	-0.004284	-0.000551	 0.038166
											}
										}
									}
								}
							}
						}
					}
				}
				JOINT Neck
				{
					OFFSET	 0.000000	 0.000000	 0.176489
					CHANNELS 3 Zrotation Xrotation Yrotation
					JOINT Head
					{
						OFFSET	 0.000000	-0.001747	 0.077940
						CHANNELS 3 Zrotation Xrotation Yrotation
						End Site
						{
							OFFSET	 0.000000	-0.001747	 0.077940
						}
					}
				}
				JOINT RightShoulder
				{
					OFFSET	-0.080363	 0.000306	 0.159706
					CHANNELS 3 Zrotation Xrotation Yrotation
					JOINT RightArm
					{
						OFFSET	 0.000000	 0.000000	 0.164196
						CHANNELS 3 Zrotation Xrotation Yrotation
						JOINT RightForeArm
						{
							OFFSET	 0.000000	 0.000000	 0.365611
							CHANNELS 3 Zrotation Xrotation Yrotation
							JOINT RightHand
							{
								OFFSET	 0.000000	 0.000000	 0.360648
								CHANNELS 3 Zrotation Xrotation Yrotation
								JOINT RightHandIndex1
								{
									OFFSET	 0.000000	 0.000000	 0.069977
									CHANNELS 3 Zrotation Xrotation Yrotation
									JOINT RightHandIndex2
									{
										OFFSET	 0.000000	 0.000000	 0.052305
										CHANNELS 3 Zrotation Xrotation Yrotation
										JOINT RightHandIndex3
										{
											OFFSET	 0.009002	-0.000782	 0.042196
											CHANNELS 3 Zrotation Xrotation Yrotation
											End Site
											{
												OFFSET	 0.009002	-0.000782	 0.042196
											}
										}
									}
								}
							}
						}
					}
				}
			}
		}
	}
}
MOTION
Frames:    10
Frame Time: 0.03333334
-0.032191	 0.282227	 0.966296	 3.316586	 33.641570	-8.575039	 87.587940	-82.285890	-98.191090	 10.714260	-78.170780	 10.900150	 62.569110	 79.633510	-70.002840	-2.385833	 28.452760	 0.000004	 107.846700	-81.554590	-71.289740	-29.433410	-82.145320	-24.085280	-10.614440	 82.689490	 30.656580	 2.384659	 28.388700	-0.000001	-6.476485	 15.084650	 0.608919	-1.850074	 20.732940	 1.074403	-5.291048	 0.292753	 4.303617	-99.230050	 68.210270	 156.571000	 2.738531	-9.955173	-48.566760	-26.549830	 2.008127	-5.658894	-24.723460	-16.366250	-18.153420	-2.027600	 6.559038	 9.033609	-5.188889	 0.308190	 3.541030	-5.234859	 0.342567	 0.430617	 0.583829	 18.770360	-6.576465	-4.022974	-27.820230	-2.498259	 97.508660	 64.676860	-159.039100	-7.043887	 4.753059	 56.992950	 8.875117	 9.174862	 28.484130	 9.246201	-15.267310	 13.568440	 1.803333	 3.979147	-15.098590	 4.898592	 3.004813	-9.310344	 5.224449	 0.395017	 2.014677
-0.031328	 0.280825	 0.972729	 3.131864	 33.096150	-8.250401	 79.285460	-82.085500	-106.663800	 9.652304	-77.439410	 9.832622	 61.942740	 79.639100	-69.172040	-2.385832	 28.452790	-0.000001	 99.862750	-82.273810	-79.101410	-27.487830	-81.379210	-22.113590	-10.545610	 82.652280	 30.534980	 2.384659	 28.388700	-0.000001	-5.831667	 14.959200	 0.523081	-1.729216	 20.952890	 0.921425	-5.280604	-0.231774	 4.127577	-99.118380	 68.196230	 156.934900	 2.878471	-9.006435	-48.905920	-26.380760	 2.001156	-5.651683	-25.036530	-16.466840	-18.372890	-2.027600	 6.559038	 9.033609	-5.188889	 0.308190	 3.541030	-5.234859	 0.342567	 0.430617	 0.247015	 17.010650	-5.733130	-4.248341	-26.059810	-2.845310	 97.417120	 64.621420	-159.327200	-7.503216	 4.903482	 56.578920	 9.024725	 9.538724	 29.277420	 9.426321	-15.414330	 14.201870	 1.803333	 3.979147	-15.098590	 4.898592	 3.004813	-9.310344	 5.224449	 0.395017	 2.014677
-0.030239	 0.279214	 0.980764	 2.971759	 32.434230	-7.907032	 69.767650	-81.634160	-116.310200	 8.662641	-76.473050	 8.831353	 60.692860	 79.609580	-67.752040	-2.385832	 28.452790	-0.000001	 88.102650	-82.894200	-90.591540	-25.479990	-80.407730	-20.072250	-10.440530	 82.580370	 30.337030	 2.384659	 28.388700	-0.000001	-5.093017	 14.814760	 0.438638	-1.574433	 21.191940	 0.716824	-5.296013	-0.845048	 3.925287	-98.904980	 68.343840	 157.369400	 3.141798	-7.700963	-49.394110	-26.147290	 1.991609	-5.641500	-25.413980	-16.634560	-18.721050	-2.027600	 6.559038	 9.033609	-5.188889	 0.308190	 3.541030	-5.234859	 0.342567	 0.430617	-0.090933	 14.727840	-4.953684	-4.419971	-23.785020	-3.074753	 97.290570	 64.464620	-159.802600	-8.126826	 4.931416	 56.103050	 9.120292	 9.964776	 30.282200	 9.458320	-15.450140	 14.919010	 1.803333	 3.979147	-15.098590	 4.898592	 3.004813	-9.310344	 5.224449	 0.395017	 2.014677
-0.029176	 0.277711	 0.988541	 2.870906	 31.815550	-7.623332	 61.698640	-81.017970	-124.439100	 7.951984	-75.495600	 8.105409	 59.092390	 79.544530	-66.048790	-2.385832	 28.452790	-0.000001	 75.436360	-83.153350	-102.958000	-23.869390	-79.449330	-18.428110	-10.296660	 82.473890	 30.088500	 2.384659	 28.388700	-0.000001	-4.426477	 14.677820	 0.375102	-1.417838	 21.376870	 0.516640	-5.334468	-1.396605	 3.739839	-98.646160	 68.608880	 157.775600	 3.454793	-6.350958	-49.914950	-25.903830	 1.980040	-5.628693	-25.767270	-16.829040	-19.112670	-2.027600	 6.559038	 9.033609	-5.188889	 0.308190	 3.541030	-5.234859	 0.342567	 0.430617	-0.357195	 12.462990	-4.404684	-4.510720	-21.535390	-3.149330	 97.157130	 64.248440	-160.345200	-8.760090	 4.834776	 55.663030	 9.135930	 10.362910	 31.296810	 9.352377	-15.368120	 15.553940	 1.803333	 3.979147	-15.098590	 4.898592	 3.004813	-9.310344	 5.224449	 0.395017	 2.014677
-0.027980	 0.276120	 0.996660	 2.772968	 31.177150	-7.341355	 54.538980	-80.201840	-131.655600	 7.309670	-74.456440	 7.446873	 57.458950	 79.464740	-64.299900	-2.385832	 28.452790	-0.000001	 61.983410	-83.034380	-116.101900	-22.452680	-78.423100	-16.974760	-10.110500	 82.354710	 29.802060	 2.384659	 28.388700	-0.000001	-3.761309	 14.521530	 0.313734	-1.263841	 21.494500	 0.333893	-5.379044	-1.924125	 3.550793	-98.373640	 68.908580	 158.181100	 3.830482	-4.923473	-50.402380	-25.647310	 1.966618	-5.613364	-26.115890	-17.030070	-19.532410	-2.027600	 6.559038	 9.033609	-5.188889	 0.308190	 3.541030	-5.234859	 0.342567	 0.430617	-0.594218	 10.171610	-3.871304	-4.592838	-19.268370	-3.222237	 97.019040	 64.069930	-160.858100	-9.432612	 4.816321	 55.114700	 9.077992	 10.768780	 32.415070	 9.251438	-15.267270	 16.150970	 1.803333	 3.979147	-15.098590	 4.898592	 3.004813	-9.310344	 5.224449	 0.395017	 2.014677
-0.026735	 0.274382	 1.004979	 2.637038	 30.462000	-7.005124	 48.184320	-79.193740	-138.127900	 6.754366	-73.400310	 6.874977	 55.980340	 79.400890	-62.703340	-2.385832	 28.452790	-0.000001	 48.683910	-82.528300	-129.101500	-21.319960	-77.339970	-15.800320	-9.828737	 82.270180	 29.407370	 2.384659	 28.388700	-0.000001	-3.118621	 14.363640	 0.255518	-1.144102	 21.648050	 0.182987	-5.419989	-2.583076	 3.326048	-97.929760	 69.538860	 158.628100	 4.348535	-3.175627	-50.961760	-25.336170	 1.950988	-5.595622	-26.515500	-17.252680	-20.200200	-2.027600	 6.559038	 9.033609	-5.188889	 0.308190	 3.541030	-5.234859	 0.342567	 0.430617	-0.789689	 7.341017	-3.270472	-4.710355	-16.508590	-3.373797	 96.846740	 64.189740	-161.200000	-10.158530	 5.351995	 54.501670	 8.716201	 11.029410	 33.606580	 9.079953	-15.114350	 16.556160	 1.803333	 3.979147	-15.098590	 4.898592	 3.004813	-9.310344	 5.224449	 0.395017	 2.014677
-0.025213	 0.272006	 1.014731	 2.501500	 29.628770	-6.628363	 42.152990	-77.855250	-144.289500	 6.191852	-72.149410	 6.292881	 54.319930	 79.326940	-60.879430	-2.385833	 28.452760	 0.000004	 35.927720	-81.489310	-141.503600	-20.196660	-76.045980	-14.625550	-9.481459	 82.162030	 28.951370	 2.384659	 28.388700	-0.000001	-2.361062	 14.145370	 0.187354	-0.996570	 21.744820	 0.033107	-5.477272	-3.299770	 3.061802	-97.423040	 70.262360	 159.137400	 4.950231	-1.148146	-51.588240	-24.964600	 1.929923	-5.570771	-26.962320	-17.518880	-20.971460	-2.027600	 6.559038	 9.033609	-5.188889	 0.308190	 3.541030	-5.234859	 0.342567	 0.430617	-0.975604	 4.106742	-2.599710	-4.823523	-13.360900	-3.530098	 96.651640	 64.326690	-161.594400	-11.020100	 5.977814	 53.738320	 8.250329	 11.351970	 35.142670	 8.886911	-14.935090	 17.017730	 1.803333	 3.979147	-15.098590	 4.898592	 3.004813	-9.310344	 5.224449	 0.395017	 2.014677
-0.023712	 0.269853	 1.023702	 2.383368	 28.849660	-6.231580	 37.625720	-76.540420	-148.966100	 5.909334	-70.985370	 5.983285	 52.941150	 79.240640	-59.397240	-2.385833	 28.452760	 0.000004	 26.644320	-80.243710	-150.467400	-19.440000	-74.798810	-13.813090	-9.029014	 82.086340	 28.443840	 2.384659	 28.388700	-0.000001	-1.670970	 13.974980	 0.094805	-0.847536	 21.860970	-0.168093	-5.512987	-3.990447	 2.871439	-96.696270	 71.447980	 159.564600	 5.543650	 1.079414	-52.464250	-24.585880	 1.908218	-5.545015	-27.446630	-17.805130	-21.638430	-2.027600	 6.559038	 9.033609	-5.188889	 0.308190	 3.541030	-5.234859	 0.342567	 0.430617	-1.113483	 1.044844	-2.348174	-4.831783	-10.399540	-3.379410	 96.278370	 64.985670	-162.021300	-11.797490	 7.149347	 53.495490	 7.724452	 11.545460	 36.495900	 8.861401	-15.095270	 17.397440	 1.803333	 3.979147	-15.098590	 4.898592	 3.004813	-9.310344	 5.224449	 0.395017	 2.014677
-0.022096	 0.267566	 1.032829	 2.279971	 28.077800	-5.821460	 33.889750	-75.145710	-152.858200	 5.703154	-69.782360	 5.745248	 51.580780	 79.133190	-57.937810	-2.385833	 28.452760	 0.000004	 19.492690	-78.781670	-157.301400	-18.794840	-73.490050	-13.105660	-8.514240	 81.994230	 27.906250	 2.384659	 28.388700	-0.000001	-0.991068	 13.791950	-0.010155	-0.698825	 21.941590	-0.373386	-5.547455	-4.659218	 2.697359	-95.871980	 72.784590	 159.942400	 6.173851	 3.410567	-53.419010	-24.192820	 1.884506	-5.516289	-27.938540	-18.109320	-22.286040	-2.027600	 6.559038	 9.033609	-5.188889	 0.308190	 3.541030	-5.234859	 0.342567	 0.430617	-1.239261	-1.990488	-2.224167	-4.820234	-7.472013	-3.138930	 95.850590	 65.806270	-162.462800	-12.598150	 8.497311	 53.367630	 7.149698	 11.709410	 37.911190	 8.874755	-15.367400	 17.754710	 1.803333	 3.979147	-15.098590	 4.898592	 3.004813	-9.310344	 5.224449	 0.395017	 2.014677
-0.020385	 0.264882	 1.042487	 2.195879	 27.264620	-5.396868	 30.587240	-73.603800	-156.316800	 5.542609	-68.489430	 5.546781	 50.064070	 79.007660	-56.318970	-2.385833	 28.452750	 0.000004	 13.761820	-77.074890	-162.697700	-17.920070	-72.095280	-12.174040	-8.112557	 81.897050	 27.406160	 2.384659	 28.388700	-0.000001	-0.287522	 13.579210	-0.118820	-0.551600	 21.990460	-0.580229	-5.585437	-5.345726	 2.524361	-94.986810	 74.156830	 160.309200	 6.909810	 5.761207	-54.427090	-23.764020	 1.857482	-5.482959	-28.367100	-18.419030	-22.955020	-2.027600	 6.559038	 9.033609	-5.188889	 0.308190	 3.541030	-5.234859	 0.342567	 0.430617	-1.361975	-5.205650	-2.183086	-4.810722	-4.390972	-2.842692	 95.405080	 66.671360	-162.920500	-13.483360	 9.873267	 53.235590	 6.537232	 11.875800	 39.464670	 8.880732	-15.657970	 18.073660	 1.803333	 3.979147	-15.098590	 4.898592	 3.004813	-9.310344	 5.224449	 0.395017	 2.014677
